<?xml version="1.0" standalone="no"?><!DOCTYPE svg PUBLIC "-//W3C//DTD SVG 1.1//EN" "http://www.w3.org/Graphics/SVG/1.1/DTD/svg11.dtd"><svg class="icon" width="200px" height="200.00px" viewBox="0 0 1024 1024" version="1.1" xmlns="http://www.w3.org/2000/svg"><path d="M512 1024a512 512 0 1 1 512-512 512.597333 512.597333 0 0 1-512 512zM420.352 297.130667a78.592 78.592 0 0 0-76.8 79.872v269.994666a78.762667 78.762667 0 0 0 77.312 80.042667 73.984 73.984 0 0 0 40.618667-12.373333l207.530666-135.168a81.237333 81.237333 0 0 0 0-134.826667l-207.530666-134.826667a74.325333 74.325333 0 0 0-41.130667-12.629333z" /></svg>