<?xml version="1.0" standalone="no"?><!DOCTYPE svg PUBLIC "-//W3C//DTD SVG 1.1//EN" "http://www.w3.org/Graphics/SVG/1.1/DTD/svg11.dtd"><svg class="icon" width="200px" height="200.00px" viewBox="0 0 1024 1024" version="1.1" xmlns="http://www.w3.org/2000/svg"><path d="M512 512m-512 0a512 512 0 1 0 1024 0 512 512 0 1 0-1024 0Z"  /><path d="M761.3 259.3c-9.5 0-17.3 7.9-17.3 17.5 0 9.7 7.8 17.5 17.3 17.5 22.6 0 41 17.7 41 39.4v117H221.6v-117c0-21.7 18.4-39.4 41-39.4 9.5 0 17.3-7.9 17.3-17.5s-7.8-17.5-17.3-17.5c-41.7 0-75.6 33.4-75.6 74.6v428.5c0 41.1 33.9 74.6 75.6 74.6h498.7c41.7 0 75.6-33.4 75.6-74.6V333.9c-0.1-41.2-33.9-74.6-75.6-74.6z m40.9 503c0 21.7-18.4 39.4-41 39.4H262.6c-22.6 0-41-17.7-41-39.4V486h580.6v276.3z" fill="#FFFFFF" /><path d="M355.4 414.6h13.2c25 0 45.4-20.7 45.4-46.1V233.1c0-25.3-20.4-46.1-45.4-46.1h-13.2c-25 0-45.4 20.7-45.4 46.1v135.4c0.1 25.5 20.4 46.1 45.4 46.1z m-30-181.5c0-16.8 13.5-30.5 30-30.5h13.2c16.6 0 30 13.6 30 30.5v135.4c0 16.8-13.5 30.5-30 30.5h-13.2c-16.6 0-30-13.6-30-30.5V233.1zM506.8 414.6H520c25 0 45.4-20.7 45.4-46.1V233.1c0-25.3-20.4-46.1-45.4-46.1h-13.2c-25 0-45.4 20.7-45.4 46.1v135.4c0.1 25.5 20.4 46.1 45.4 46.1z m-29.9-181.5c0-16.8 13.5-30.5 30-30.5h13.2c16.6 0 30 13.6 30 30.5v135.4c0 16.8-13.5 30.5-30 30.5h-13.2c-16.6 0-30-13.6-30-30.5V233.1zM658.4 414.6h13.2c25 0 45.4-20.7 45.4-46.1V233.1c0-25.3-20.4-46.1-45.4-46.1h-13.2c-25 0-45.4 20.7-45.4 46.1v135.4c-0.1 25.5 20.3 46.1 45.4 46.1z m-30-181.5c0-16.8 13.5-30.5 30-30.5h13.2c16.6 0 30 13.6 30 30.5v135.4c0 16.8-13.5 30.5-30 30.5h-13.2c-16.6 0-30-13.6-30-30.5V233.1zM514.8 741.5l181.9-194.9c6.5-7 6.3-18.2-0.7-24.9-6.8-6.7-17.9-6.4-24.4 0.6L513.3 692.1 402 587.8c-7-6.6-18-6.2-24.5 1-6.5 7.1-6.1 18.3 1 24.9l136.3 127.8z" fill="#FFFFFF" /></svg>